<svg width="20" height="20" viewBox="0 0 20 20" fill="none" xmlns="http://www.w3.org/2000/svg">
<path d="M0.603083 3.94948H3.92784C3.73404 3.80212 3.53823 3.65274 3.34444 3.50538C3.44134 3.8001 3.53823 4.09483 3.63513 4.39157C3.86929 5.10013 4.10144 5.80868 4.33561 6.51724C4.6162 7.36912 4.89882 8.22302 5.17941 9.07691C5.42367 9.81777 5.66793 10.5586 5.91017 11.2995C6.02927 11.6588 6.14232 12.0201 6.26546 12.3774C6.26748 12.3835 6.2695 12.3875 6.27152 12.3936C6.37043 12.6944 6.69544 12.9205 7.01641 12.8175C7.31517 12.7206 7.5453 12.3956 7.44033 12.0726C7.34343 11.7779 7.24653 11.4832 7.14964 11.1864C6.91547 10.4779 6.68332 9.76932 6.44916 9.06076C6.16856 8.20687 5.88797 7.35297 5.60535 6.49907C5.36109 5.75822 5.11683 5.01736 4.87459 4.27651C4.75549 3.91719 4.64447 3.55584 4.51931 3.19854C4.51729 3.19248 4.51527 3.18845 4.51325 3.18239C4.42847 2.92804 4.20439 2.73828 3.92986 2.73828H0.605101C0.28817 2.73828 -0.0146313 3.01686 -0.000500629 3.34388C0.0116114 3.67293 0.263946 3.94948 0.603083 3.94948Z" fill="#E5E5E5"/>
<path d="M6.33402 11.9262C6.00699 12.5096 5.67795 13.091 5.35092 13.6744C5.3045 13.7592 5.25605 13.8419 5.20962 13.9267C4.98554 14.3244 5.26816 14.8371 5.73245 14.8371H14.978C15.4039 14.8371 15.8319 14.8452 16.2598 14.8371H16.278C16.5949 14.8371 16.8977 14.5585 16.8836 14.2315C16.8695 13.9025 16.6171 13.6259 16.278 13.6259H7.03248C6.60654 13.6259 6.17656 13.6138 5.75062 13.6259H5.73245C5.90606 13.9287 6.08168 14.2335 6.25529 14.5363C6.58232 13.9529 6.91136 13.3716 7.23838 12.7882C7.28481 12.7034 7.33326 12.6206 7.37969 12.5358C7.53513 12.2593 7.45438 11.8616 7.16167 11.7082C6.87502 11.5588 6.49955 11.6315 6.33402 11.9262Z" fill="#E5E5E5"/>
<path d="M14.3991 18.726C15.1584 18.726 15.7738 18.1105 15.7738 17.3513C15.7738 16.592 15.1584 15.9766 14.3991 15.9766C13.6399 15.9766 13.0244 16.592 13.0244 17.3513C13.0244 18.1105 13.6399 18.726 14.3991 18.726Z" fill="#E5E5E5"/>
<path d="M12.6206 17.353C12.6287 18.11 13.1031 18.7641 13.8076 19.0285C14.4738 19.2788 15.2933 19.0608 15.7475 18.5117C16.23 17.9263 16.3269 17.0926 15.9252 16.4345C15.5295 15.7845 14.7705 15.4676 14.0297 15.6129C13.2121 15.7724 12.6287 16.5334 12.6206 17.353C12.6186 17.565 12.8084 17.7668 13.0244 17.7567C13.2444 17.7467 13.4261 17.5791 13.4281 17.353C13.4281 17.3207 13.4301 17.2864 13.4321 17.2541C13.4321 17.24 13.4341 17.2258 13.4362 17.2117C13.4422 17.131 13.4341 17.2379 13.4321 17.2359C13.418 17.2279 13.4745 17.0542 13.4806 17.0381C13.4866 17.022 13.4987 16.9533 13.5129 16.9493C13.5169 16.9473 13.4765 17.024 13.4987 16.9836C13.5068 16.9674 13.5149 16.9513 13.5209 16.9351C13.5512 16.8746 13.5876 16.8201 13.6239 16.7636C13.6623 16.705 13.5694 16.8261 13.634 16.7514C13.6542 16.7292 13.6744 16.705 13.6966 16.6828C13.7188 16.6606 13.741 16.6384 13.7632 16.6182C13.7733 16.6101 13.7834 16.6 13.7935 16.592C13.8076 16.5799 13.8661 16.5516 13.8137 16.5738C13.7692 16.592 13.8015 16.5839 13.8157 16.5738C13.8298 16.5637 13.8439 16.5536 13.8601 16.5435C13.8823 16.5294 13.9045 16.5153 13.9287 16.5032C13.959 16.485 13.9913 16.4709 14.0236 16.4547C14.0337 16.4486 14.0761 16.4285 14.0236 16.4527C13.963 16.4809 14.0438 16.4466 14.0498 16.4446C14.1043 16.4244 14.1629 16.4083 14.2194 16.3962C14.2376 16.3921 14.2557 16.3901 14.2739 16.3861C14.3183 16.376 14.2356 16.3901 14.2356 16.3901C14.2719 16.3901 14.3103 16.382 14.3466 16.382C14.4132 16.38 14.4778 16.382 14.5444 16.3881C14.6191 16.3941 14.4677 16.374 14.5606 16.3921C14.5969 16.3982 14.6312 16.4083 14.6676 16.4163C14.6978 16.4244 14.7281 16.4345 14.7584 16.4446C14.7665 16.4466 14.8068 16.4608 14.8089 16.4628C14.8109 16.4688 14.7342 16.4244 14.7745 16.4486C14.8311 16.483 14.8936 16.5092 14.9502 16.5455C14.9643 16.5556 14.9784 16.5657 14.9946 16.5758C15.0087 16.5859 15.039 16.594 14.9966 16.5758C14.9562 16.5597 14.9825 16.5637 14.9966 16.5778C15.0107 16.59 15.0228 16.6 15.037 16.6122C15.0874 16.6566 15.1298 16.705 15.1742 16.7535C15.2348 16.8201 15.146 16.707 15.1843 16.7656C15.2005 16.7918 15.2187 16.816 15.2348 16.8423C15.251 16.8685 15.2671 16.8968 15.2812 16.923L15.2994 16.9594C15.3378 17.032 15.3075 16.9533 15.2974 16.9493C15.3216 16.9574 15.3478 17.1027 15.3559 17.1289C15.362 17.1552 15.368 17.1834 15.3741 17.2097C15.3902 17.2864 15.3721 17.1855 15.3721 17.1834C15.3822 17.1935 15.3781 17.24 15.3781 17.2521C15.3822 17.3126 15.3822 17.3752 15.3781 17.4358C15.3761 17.4539 15.3741 17.4721 15.3741 17.4923C15.3721 17.5327 15.3499 17.5266 15.3781 17.4681C15.364 17.4984 15.364 17.5428 15.3559 17.5751C15.3418 17.6316 15.3196 17.6861 15.3034 17.7426C15.2873 17.7931 15.3398 17.674 15.3135 17.7204C15.3075 17.7305 15.3014 17.7446 15.2974 17.7567C15.2812 17.789 15.2651 17.8193 15.2469 17.8496C15.2308 17.8758 15.2146 17.9021 15.1964 17.9283C15.1419 18.0111 15.2348 17.888 15.1884 17.9425C15.144 17.9929 15.1016 18.0414 15.0511 18.0858C15.043 18.0939 14.9946 18.1464 14.9804 18.1464C14.9804 18.1464 15.0632 18.0898 14.9986 18.1302C14.9865 18.1383 14.9764 18.1443 14.9663 18.1524C14.9098 18.1887 14.8513 18.219 14.7927 18.2493C14.7301 18.2816 14.8654 18.2251 14.7786 18.2554C14.7483 18.2655 14.72 18.2755 14.6898 18.2856C14.6595 18.2937 14.6292 18.3018 14.5969 18.3099C14.5828 18.3119 14.5707 18.3159 14.5565 18.3179C14.4677 18.3381 14.6211 18.3139 14.5686 18.3179C14.502 18.324 14.4374 18.328 14.3708 18.326C14.3385 18.326 14.3062 18.322 14.2719 18.32C14.2598 18.32 14.2113 18.3139 14.2699 18.32C14.3365 18.326 14.2557 18.3159 14.2416 18.3139C14.171 18.2998 14.1023 18.2776 14.0337 18.2533C14.0216 18.2493 13.9812 18.2291 14.0317 18.2533C14.0902 18.2816 14.0196 18.2473 14.0074 18.2412C13.9751 18.2251 13.9449 18.2089 13.9146 18.1908C13.8843 18.1726 13.856 18.1524 13.8258 18.1322C13.7773 18.1019 13.8318 18.1484 13.8439 18.1484C13.8359 18.1484 13.8096 18.1201 13.8036 18.1141C13.7511 18.0676 13.7006 18.0192 13.6542 17.9647C13.6542 17.9647 13.6199 17.9304 13.6199 17.9243C13.6199 17.9324 13.6683 17.9929 13.636 17.9425C13.6158 17.9122 13.5956 17.8839 13.5775 17.8536C13.5573 17.8193 13.5391 17.783 13.5209 17.7487C13.4786 17.6659 13.5411 17.8133 13.5088 17.7224C13.4846 17.6538 13.4644 17.5852 13.4503 17.5125C13.4483 17.5004 13.4483 17.4822 13.4422 17.4721C13.4725 17.5387 13.4483 17.5286 13.4442 17.4822C13.4402 17.4398 13.4382 17.3974 13.4382 17.355C13.4362 17.1431 13.2545 16.9412 13.0344 16.9513C12.8084 16.9574 12.6186 17.1269 12.6206 17.353Z" fill="#E5E5E5"/>
<path d="M7.43966 18.726C8.19889 18.726 8.81437 18.1105 8.81437 17.3513C8.81437 16.592 8.19889 15.9766 7.43966 15.9766C6.68042 15.9766 6.06494 16.592 6.06494 17.3513C6.06494 18.1105 6.68042 18.726 7.43966 18.726Z" fill="#E5E5E5"/>
<path d="M5.66117 17.3501C5.66924 18.1071 6.14363 18.7612 6.84814 19.0256C7.51431 19.2759 8.33389 19.0579 8.78809 18.5088C9.27055 17.9234 9.36745 17.0897 8.96573 16.4316C8.57007 15.7816 7.81105 15.4647 7.0702 15.61C6.25062 15.7695 5.66924 16.5305 5.66117 17.3501C5.65915 17.5621 5.8489 17.7639 6.0649 17.7538C6.28494 17.7437 6.46662 17.5762 6.46863 17.3501C6.46863 17.3178 6.47065 17.2835 6.47267 17.2512C6.47267 17.2371 6.47469 17.2229 6.47671 17.2088C6.48276 17.1281 6.47469 17.235 6.47267 17.233C6.45854 17.2249 6.51506 17.0513 6.52112 17.0352C6.52718 17.019 6.53929 16.9504 6.55342 16.9464C6.55746 16.9444 6.51708 17.0211 6.53929 16.9807C6.54736 16.9645 6.55544 16.9484 6.56149 16.9322C6.59177 16.8717 6.62811 16.8172 6.66445 16.7607C6.7028 16.7021 6.60994 16.8232 6.67454 16.7485C6.69473 16.7263 6.71491 16.7021 6.73712 16.6799C6.75932 16.6577 6.78153 16.6355 6.80373 16.6153C6.81383 16.6072 6.82392 16.5971 6.83401 16.5891C6.84814 16.577 6.90669 16.5487 6.8542 16.5709C6.80979 16.5891 6.84209 16.581 6.85622 16.5709C6.87035 16.5608 6.88448 16.5507 6.90063 16.5406C6.92284 16.5265 6.94504 16.5124 6.96926 16.5002C6.99955 16.4821 7.03184 16.4679 7.06414 16.4518C7.07424 16.4457 7.11663 16.4256 7.06414 16.4498C7.00358 16.478 7.08433 16.4437 7.09039 16.4417C7.14489 16.4215 7.20343 16.4054 7.25995 16.3933C7.27812 16.3892 7.29629 16.3872 7.31446 16.3832C7.35887 16.3731 7.2761 16.3872 7.2761 16.3872C7.31244 16.3872 7.35079 16.3791 7.38713 16.3791C7.45375 16.3771 7.51834 16.3791 7.58496 16.3852C7.65965 16.3912 7.50825 16.371 7.60111 16.3892C7.63745 16.3953 7.67176 16.4054 7.7081 16.4134C7.73838 16.4215 7.76866 16.4316 7.79894 16.4417C7.80701 16.4437 7.84739 16.4579 7.84941 16.4599C7.85143 16.4659 7.77472 16.4215 7.81509 16.4457C7.87161 16.4801 7.93419 16.5063 7.99071 16.5426C8.00484 16.5527 8.01897 16.5628 8.03512 16.5729C8.04925 16.583 8.07953 16.5911 8.03714 16.5729C7.99677 16.5568 8.02301 16.5608 8.03714 16.5749C8.05127 16.587 8.06339 16.5971 8.07752 16.6093C8.12798 16.6537 8.17038 16.7021 8.21479 16.7506C8.27535 16.8172 8.18652 16.7041 8.22488 16.7627C8.24103 16.7889 8.2592 16.8131 8.27535 16.8394C8.2915 16.8656 8.30765 16.8939 8.32178 16.9201L8.33994 16.9565C8.3783 17.0291 8.34802 16.9504 8.33792 16.9464C8.36215 16.9544 8.38839 17.0998 8.39647 17.126C8.40252 17.1523 8.40858 17.1805 8.41463 17.2068C8.43078 17.2835 8.41262 17.1826 8.41262 17.1805C8.42271 17.1906 8.41867 17.2371 8.41867 17.2492C8.42271 17.3097 8.42271 17.3723 8.41867 17.4329C8.41665 17.451 8.41463 17.4692 8.41463 17.4894C8.41262 17.5298 8.39041 17.5237 8.41867 17.4652C8.40454 17.4955 8.40454 17.5399 8.39647 17.5722C8.38234 17.6287 8.36013 17.6832 8.34398 17.7397C8.32783 17.7902 8.38032 17.6711 8.35407 17.7175C8.34802 17.7276 8.34196 17.7417 8.33792 17.7538C8.32178 17.7861 8.30563 17.8164 8.28746 17.8467C8.27131 17.8729 8.25516 17.8992 8.23699 17.9254C8.18249 18.0082 8.27535 17.8851 8.22892 17.9396C8.18451 17.99 8.14211 18.0385 8.09165 18.0829C8.08357 18.091 8.03512 18.1434 8.02099 18.1434C8.02099 18.1434 8.10376 18.0869 8.03916 18.1273C8.02705 18.1354 8.01696 18.1414 8.00686 18.1495C7.95034 18.1858 7.8918 18.2161 7.83326 18.2464C7.77068 18.2787 7.90593 18.2222 7.81913 18.2525C7.78885 18.2625 7.76058 18.2726 7.7303 18.2827C7.70002 18.2908 7.66974 18.2989 7.63745 18.307C7.62332 18.309 7.6112 18.313 7.59707 18.315C7.50825 18.3352 7.66167 18.311 7.60918 18.315C7.54257 18.3211 7.47797 18.3251 7.41135 18.3231C7.37906 18.3231 7.34676 18.3191 7.31244 18.317C7.30033 18.317 7.25188 18.311 7.31042 18.317C7.37704 18.3231 7.29629 18.313 7.28216 18.311C7.21151 18.2969 7.14287 18.2747 7.07424 18.2504C7.06212 18.2464 7.02175 18.2262 7.07222 18.2504C7.13076 18.2787 7.06011 18.2444 7.04799 18.2383C7.01569 18.2222 6.98541 18.206 6.95513 18.1879C6.92485 18.1697 6.89659 18.1495 6.86631 18.1293C6.81786 18.099 6.87237 18.1455 6.88448 18.1455C6.87641 18.1455 6.85016 18.1172 6.84411 18.1111C6.79162 18.0647 6.74115 18.0163 6.69473 17.9618C6.69473 17.9618 6.66041 17.9274 6.66041 17.9214C6.66041 17.9295 6.70886 17.99 6.67656 17.9396C6.65637 17.9093 6.63618 17.881 6.61802 17.8507C6.59783 17.8164 6.57966 17.7801 6.56149 17.7458C6.5191 17.663 6.58168 17.8104 6.54938 17.7195C6.52516 17.6509 6.50497 17.5823 6.49084 17.5096C6.48882 17.4975 6.48882 17.4793 6.48276 17.4692C6.51304 17.5358 6.48882 17.5257 6.48478 17.4793C6.48075 17.4369 6.47873 17.3945 6.47873 17.3521C6.47671 17.1402 6.29503 16.9383 6.07499 16.9484C5.84688 16.9544 5.65713 17.124 5.66117 17.3501ZM18.724 5.90625L16.2733 12.2247H6.85622L4.77295 5.90625H18.724Z" fill="#E5E5E5"/>
<path d="M18.333 5.79665C18.0565 6.50924 17.7819 7.22183 17.5054 7.93443C17.0653 9.07094 16.6252 10.2054 16.1872 11.3419C16.0863 11.6024 15.9853 11.8648 15.8844 12.1252C16.0136 12.0263 16.1448 11.9274 16.274 11.8284H8.0156C7.63609 11.8284 7.25254 11.8123 6.87101 11.8284H6.85486C6.98406 11.9274 7.11527 12.0263 7.24447 12.1252C7.00828 11.4086 6.77412 10.694 6.53793 9.97732C6.16448 8.84485 5.79102 7.71237 5.41959 6.57788C5.33278 6.31747 5.248 6.05706 5.1612 5.79463C5.032 5.9642 4.90079 6.13579 4.77159 6.30536H18.1574C18.3391 6.30536 18.5208 6.30939 18.7004 6.30536H18.7247C18.9366 6.30536 19.1385 6.11964 19.1284 5.90162C19.1183 5.68361 18.9507 5.49789 18.7247 5.49789H5.33884C5.15716 5.49789 4.97548 5.49385 4.79582 5.49789H4.77159C4.51926 5.49789 4.29922 5.7583 4.38199 6.00861C4.61817 6.72524 4.85234 7.43985 5.08852 8.15648C5.46198 9.28896 5.83543 10.4214 6.20687 11.5559C6.29367 11.8163 6.37846 12.0767 6.46526 12.3392C6.52178 12.5087 6.67116 12.6359 6.85486 12.6359H15.1133C15.4928 12.6359 15.8763 12.65 16.2578 12.6359H16.274C16.4658 12.6359 16.599 12.5067 16.6636 12.3392C16.9402 11.6266 17.2147 10.914 17.4912 10.2014C17.9313 9.06488 18.3714 7.93039 18.8094 6.79388C18.9104 6.53347 19.0113 6.27104 19.1122 6.01063C19.189 5.8128 19.0275 5.55845 18.8296 5.51404C18.5975 5.46155 18.4138 5.58469 18.333 5.79665Z" fill="#E5E5E5"/>
<circle cx="14.8319" cy="6.0389" r="5.1678" fill="white"/>
<path d="M13.4094 6.87109V6.67309C13.4094 6.49309 13.4414 6.32909 13.5054 6.18109C13.5694 6.03309 13.6554 5.89909 13.7634 5.77909C13.8714 5.65509 13.9914 5.53909 14.1234 5.43109C14.2594 5.31909 14.3954 5.21309 14.5314 5.11309C14.6994 4.98909 14.8574 4.86509 15.0054 4.74109C15.1534 4.61309 15.2734 4.47709 15.3654 4.33309C15.4574 4.18509 15.5034 4.02109 15.5034 3.84109C15.5034 3.75709 15.4834 3.67309 15.4434 3.58909C15.4034 3.50509 15.3374 3.43509 15.2454 3.37909C15.1574 3.32309 15.0374 3.29509 14.8854 3.29509C14.7334 3.29509 14.6074 3.32109 14.5074 3.37309C14.4074 3.42109 14.3314 3.49109 14.2794 3.58309C14.2314 3.67509 14.2074 3.78909 14.2074 3.92509V4.17109H13.4754C13.4714 4.15109 13.4674 4.12109 13.4634 4.08109C13.4594 4.04109 13.4574 3.99109 13.4574 3.93109C13.4574 3.63509 13.5234 3.39709 13.6554 3.21709C13.7914 3.03309 13.9694 2.89909 14.1894 2.81509C14.4134 2.72709 14.6554 2.68309 14.9154 2.68309C15.1874 2.68309 15.4094 2.72309 15.5814 2.80309C15.7574 2.88309 15.8934 2.98509 15.9894 3.10909C16.0894 3.23309 16.1574 3.36509 16.1934 3.50509C16.2334 3.64509 16.2534 3.77309 16.2534 3.88909C16.2534 4.08109 16.2194 4.25709 16.1514 4.41709C16.0874 4.57309 15.9974 4.72109 15.8814 4.86109C15.7654 4.99709 15.6274 5.12909 15.4674 5.25709C15.3114 5.38109 15.1434 5.50709 14.9634 5.63509C14.8714 5.69909 14.7814 5.76309 14.6934 5.82709C14.6054 5.89109 14.5274 5.95509 14.4594 6.01909C14.3954 6.08309 14.3454 6.14709 14.3094 6.21109H16.2774V6.87109H13.4094Z" fill="url(#paint0_linear_6535_6424)"/>
<defs>
<linearGradient id="paint0_linear_6535_6424" x1="12.248" y1="5.39292" x2="17.2896" y2="4.74796" gradientUnits="userSpaceOnUse">
<stop stop-color="#FE3B76"/>
<stop offset="0.5" stop-color="#AF29CE"/>
<stop offset="1" stop-color="#2931DD"/>
<stop offset="1" stop-color="#2931DD"/>
</linearGradient>
</defs>
</svg>
