<svg width="20" height="20" viewBox="0 0 20 20" fill="none" xmlns="http://www.w3.org/2000/svg">
<path d="M17.8385 16.4605L14.1631 12.7852C15.048 11.6072 15.5256 10.1733 15.524 8.7C15.524 4.93672 12.4623 1.875 8.69902 1.875C4.93574 1.875 1.87402 4.93672 1.87402 8.7C1.87402 12.4633 4.93574 15.525 8.69902 15.525C10.1723 15.5266 11.6062 15.0489 12.7842 14.1641L16.4596 17.8395C16.6456 18.0058 16.8883 18.0945 17.1377 18.0876C17.3872 18.0806 17.6245 17.9784 17.8009 17.8019C17.9774 17.6255 18.0796 17.3881 18.0866 17.1387C18.0936 16.8893 18.0048 16.6466 17.8385 16.4605ZM3.82402 8.7C3.82402 7.73582 4.10994 6.79328 4.64561 5.9916C5.18128 5.18991 5.94265 4.56506 6.83344 4.19609C7.72423 3.82711 8.70443 3.73057 9.65009 3.91867C10.5957 4.10677 11.4644 4.57107 12.1462 5.25285C12.8279 5.93464 13.2922 6.80328 13.4804 7.74893C13.6685 8.69459 13.5719 9.67479 13.2029 10.5656C12.834 11.4564 12.2091 12.2177 11.4074 12.7534C10.6057 13.2891 9.66321 13.575 8.69902 13.575C7.40657 13.5734 6.16749 13.0593 5.25359 12.1454C4.33969 11.2315 3.82557 9.99245 3.82402 8.7Z" fill="#E5E5E5"/>
</svg>
