<svg width="420" height="562" viewBox="0 0 420 562" fill="none" xmlns="http://www.w3.org/2000/svg">
<path d="M151.386 70.5112L151.386 404.009C151.386 422.47 136.446 437.428 118.009 437.428L-261.674 437.428C-280.112 437.428 -295.052 422.47 -295.052 404.009L-295.052 139.289C-295.052 120.829 -280.112 105.87 -261.674 105.87L283.289 105.87C301.726 105.87 316.667 120.829 316.667 139.289L316.667 507.833C316.667 526.293 301.726 541.252 283.289 541.252L162.386 541.252C143.949 541.252 129.009 526.293 129.009 507.833L129.009 301.254C129.009 282.794 114.068 267.835 95.6308 267.835L-22.7266 267.835C-41.164 267.835 -56.1045 282.794 -56.1045 301.254L-56.1045 746.319C-56.1045 764.779 -71.0449 779.738 -89.4823 779.738L-398.108 779.737C-416.546 779.737 -431.486 764.779 -431.486 746.319L-431.486 542.469C-431.486 524.008 -416.546 509.05 -398.108 509.05L354.658 509.05C373.095 509.05 388.036 494.091 388.036 475.631L388.036 240.926C388.036 222.466 373.095 207.507 354.658 207.507L-511.622 207.507C-530.06 207.507 -545 222.466 -545 240.926L-545 322.312C-545 340.772 -530.06 355.73 -511.622 355.73L385.622 355.73C404.06 355.73 419 340.772 419 322.312L419 66.8455C419 48.3854 404.06 33.4266 385.622 33.4266L-80.2553 33.4266C-98.6928 33.4266 -113.633 48.3854 -113.633 66.8455L-113.633 794.581C-113.633 813.041 -98.6928 828 -80.2554 828L53.1574 828C71.5948 828 86.5352 813.041 86.5352 794.581L86.5352 -45" stroke="url(#paint0_linear_1793_40817)" stroke-opacity="0.4" stroke-miterlimit="10" stroke-linecap="round" stroke-dasharray="8 8"/>
<defs>
<linearGradient id="paint0_linear_1793_40817" x1="-62.9995" y1="-45.0001" x2="105.566" y2="786.433" gradientUnits="userSpaceOnUse">
<stop stop-color="#FE3B76"/>
<stop offset="0.5" stop-color="#AF29CE"/>
<stop offset="1" stop-color="#2931DD"/>
</linearGradient>
</defs>
</svg>
