<svg width="966" height="875" viewBox="0 0 966 875" fill="none" xmlns="http://www.w3.org/2000/svg">
<path d="M697.386 116.511L697.386 450.009C697.386 468.47 682.446 483.428 664.009 483.428L284.326 483.428C265.888 483.428 250.948 468.47 250.948 450.009L250.948 185.289C250.948 166.829 265.888 151.87 284.326 151.87L829.289 151.87C847.726 151.87 862.667 166.829 862.667 185.289L862.667 553.833C862.667 572.293 847.726 587.252 829.289 587.252L708.386 587.252C689.949 587.252 675.009 572.293 675.009 553.833L675.009 347.254C675.009 328.794 660.068 313.835 641.631 313.835L523.273 313.835C504.836 313.835 489.896 328.794 489.896 347.254L489.896 792.319C489.896 810.779 474.955 825.738 456.518 825.738L147.892 825.737C129.454 825.737 114.514 810.779 114.514 792.319L114.514 588.469C114.514 570.008 129.454 555.05 147.892 555.05L900.658 555.05C919.095 555.05 934.036 540.091 934.036 521.631L934.036 286.926C934.036 268.466 919.095 253.507 900.658 253.507L34.3778 253.507C15.9403 253.507 1.00002 268.466 1.00002 286.926L1.00001 368.312C1.00001 386.772 15.9403 401.73 34.3778 401.73L931.622 401.73C950.06 401.73 965 386.772 965 368.312L965 112.846C965 94.3854 950.06 79.4266 931.622 79.4266L465.745 79.4266C447.307 79.4266 432.367 94.3854 432.367 112.845L432.367 840.581C432.367 859.041 447.307 874 465.745 874L599.157 874C617.595 874 632.535 859.041 632.535 840.581L632.535 0.999985" stroke="url(#paint0_linear_1_2)" stroke-opacity="0.4" stroke-miterlimit="10" stroke-linecap="round" stroke-dasharray="8 8"/>
<defs>
<linearGradient id="paint0_linear_1_2" x1="483.001" y1="0.999882" x2="651.566" y2="832.433" gradientUnits="userSpaceOnUse">
<stop stop-color="#FE3B76"/>
<stop offset="0.5" stop-color="#AF29CE"/>
<stop offset="1" stop-color="#2931DD"/>
</linearGradient>
</defs>
</svg>
