<svg width="899" height="813" viewBox="0 0 899 813" fill="none" xmlns="http://www.w3.org/2000/svg">
<path d="M250.014 704.692L250.014 394.879C250.014 377.73 263.916 363.833 281.072 363.833L634.366 363.833C651.522 363.833 665.424 377.73 665.424 394.879L665.424 640.799C665.424 657.948 651.522 671.845 634.366 671.845L127.279 671.845C110.123 671.845 96.2211 657.948 96.2211 640.799L96.2211 298.429C96.2211 281.28 110.123 267.383 127.279 267.383L239.778 267.383C256.934 267.383 270.836 281.28 270.836 298.429L270.836 490.336C270.836 507.486 284.738 521.382 301.894 521.382L412.026 521.382C429.182 521.382 443.084 507.486 443.084 490.336L443.084 76.8804C443.084 59.7313 456.986 45.835 474.142 45.835L761.317 45.835C778.473 45.835 792.375 59.7313 792.375 76.8804L792.375 266.253C792.375 283.402 778.473 297.299 761.317 297.299L60.8703 297.299C43.7143 297.299 29.8123 311.195 29.8123 328.344L29.8123 546.38C29.8123 563.529 43.7143 577.426 60.8703 577.426L866.942 577.426C884.098 577.426 898 563.529 898 546.38L898 470.775C898 453.626 884.098 439.729 866.942 439.729L32.058 439.729C14.902 439.729 0.999984 453.626 0.999985 470.775L0.999995 708.098C0.999996 725.247 14.902 739.143 32.058 739.143L465.556 739.143C482.712 739.143 496.614 725.247 496.614 708.098L496.614 32.0454C496.614 14.8963 482.712 1.00001 465.556 1.00002L341.416 1.00002C324.26 1.00002 310.358 14.8964 310.358 32.0454L310.358 812" stroke="url(#paint0_linear_1_6)" stroke-opacity="0.4" stroke-miterlimit="10" stroke-linecap="round" stroke-dasharray="8 8"/>
<defs>
<linearGradient id="paint0_linear_1_6" x1="449.5" y1="812" x2="293.141" y2="39.5158" gradientUnits="userSpaceOnUse">
<stop stop-color="#FE3B76"/>
<stop offset="0.5" stop-color="#AF29CE"/>
<stop offset="1" stop-color="#2931DD"/>
</linearGradient>
</defs>
</svg>
