<svg width="20" height="20" viewBox="0 0 20 20" fill="none" xmlns="http://www.w3.org/2000/svg">
<g clip-path="url(#clip0_6535_6436)">
<path d="M14.7029 16.2418L14.3094 16.1194C14.3767 15.8335 14.4393 15.5206 14.4964 15.1908C14.7703 15.003 15.0441 14.8097 15.3134 14.6116C15.3274 14.7826 15.3367 14.9479 15.3452 15.1114C15.1358 15.5168 14.9217 15.8971 14.7029 16.2418ZM7.36198 3.40511C7.51809 3.2846 7.6742 3.1725 7.82657 3.06507C7.83312 2.98566 7.8406 2.91093 7.84807 2.83806C8.00045 2.77921 8.15095 2.72129 8.29958 2.66804C8.47813 2.90345 8.68378 3.19679 8.9072 3.53683C8.83616 3.61063 8.76511 3.6863 8.69313 3.76384C8.45195 3.84605 8.20704 3.93199 7.96305 4.01887C7.9911 3.7545 8.02195 3.50881 8.05653 3.2874C7.96212 3.43874 7.86677 3.59942 7.76955 3.76758L7.26943 3.78626C7.29935 3.65267 7.3302 3.52562 7.36198 3.40511ZM19.8948 9.8538C19.6564 10.1443 19.376 10.4517 19.0619 10.7721C19.0563 10.9645 19.0498 11.1589 19.0423 11.3513C18.9236 11.5176 18.8011 11.6848 18.6721 11.8548C18.5453 11.3329 18.4045 10.8146 18.2496 10.3003C18.0647 10.008 17.8736 9.71958 17.6765 9.43528C17.1692 9.31021 16.6606 9.19 16.1509 9.07469C15.9911 8.92148 15.8266 8.76921 15.6602 8.61507L15.4209 8.75893C15.5471 9.06348 15.6695 9.36802 15.7873 9.6735C15.9671 9.57585 16.1462 9.47714 16.3248 9.37737C16.5623 9.58102 16.7913 9.78187 17.011 9.97805C16.3603 10.433 15.6424 10.9113 14.8862 11.3943C14.5131 10.5761 14.1225 9.76598 13.7149 8.96445L13.4569 9.00556C13.8785 9.95816 14.2775 10.9206 14.6534 11.8922C15.047 11.6932 15.4312 11.4952 15.8023 11.2999C15.6751 11.7399 15.5387 12.1781 15.3947 12.6068C15.0021 12.9749 14.5964 13.3374 14.1879 13.6914C14.2075 14.1903 14.2178 14.6658 14.2159 15.1058C13.9888 15.2618 13.7625 15.4131 13.5344 15.5598C13.0689 16.1838 12.609 16.7247 12.1724 17.1414C11.806 17.19 11.4414 17.2329 11.0797 17.275C10.7382 16.7235 10.4225 16.1565 10.1337 15.5757C10.2169 15.259 10.3057 14.9208 10.3954 14.563C10.1739 13.9409 9.93922 13.2617 9.70178 12.5545C8.90627 12.6031 8.11917 12.6451 7.34983 12.6797C6.90571 12.2618 6.46817 11.837 6.03737 11.4055C6.09346 10.7179 6.16357 10.0154 6.2449 9.31664C6.66275 8.79537 7.09463 8.27409 7.52837 7.76216C8.34726 7.61082 9.1839 7.46415 10.0149 7.32496L10.171 7.97141C10.5122 8.18908 10.8544 8.41142 11.1975 8.63375L11.5845 8.09286C12.1042 8.22738 12.6193 8.36377 13.1259 8.5011L13.5101 8.26849C13.5625 8.07791 13.6111 7.89014 13.6606 7.70424C13.3176 7.64071 12.9689 7.57532 12.6174 7.5118L12.2603 6.93447C12.1753 6.8943 12.0921 6.85319 12.0089 6.81116C11.9434 7.0475 11.8771 7.28852 11.8079 7.53235C11.6471 7.33617 11.4872 7.14279 11.3265 6.95128C11.3349 6.79247 11.3433 6.63553 11.3489 6.48045C11.1409 6.32456 10.9318 6.1701 10.7216 6.0171C10.5982 5.95952 10.4745 5.90253 10.3505 5.84614C10.3627 5.99468 10.372 6.14601 10.3842 6.29922C10.6431 6.46364 10.9058 6.63086 11.1685 6.80181C11.0357 6.94755 10.9021 7.09702 10.7665 7.24929L10.1982 6.53277C10.0626 6.3861 9.92987 6.2413 9.79619 6.09931C9.48297 6.24415 9.17074 6.39113 8.85952 6.54024C8.63517 6.86347 8.40802 7.19604 8.1818 7.53515C7.85088 7.48844 7.5237 7.4436 7.19932 7.39969C7.19468 7.00891 7.19375 6.61809 7.19652 6.22729C7.60503 6.2441 8.01821 6.26279 8.437 6.28521C8.31173 6.08716 8.18834 5.89285 8.06682 5.70414C7.99755 5.55335 7.92744 5.40294 7.85649 5.25293C8.16797 5.15738 8.48021 5.06427 8.79315 4.97361C8.97077 4.77463 9.14464 4.58312 9.31758 4.40002L9.72702 4.37386C9.70123 4.27434 9.67474 4.175 9.64756 4.07586L9.9093 3.81148C9.97474 3.95348 10.0411 4.10201 10.1075 4.25616C10.487 4.26363 10.8665 4.27484 11.2451 4.28698C11.3423 4.07212 11.433 3.86847 11.5209 3.67789L11.9528 3.79093C11.8952 3.66175 11.8357 3.53344 11.7742 3.40605C11.9836 3.36307 12.1874 3.32197 12.3912 3.28273C12.3184 3.22879 12.2448 3.17585 12.1706 3.12392C11.9859 3.1537 11.8014 3.18484 11.6172 3.21734C11.5417 3.11324 11.4644 3.01046 11.3853 2.90906L11.3554 2.90812C11.3591 2.90077 11.3632 2.89359 11.3676 2.88664C11.337 2.84705 11.3052 2.80842 11.2722 2.7708C11.3423 2.74184 11.4125 2.71288 11.4807 2.68672C11.5359 2.5933 11.5807 2.52417 11.6303 2.4485L11.4246 2.43075C11.323 2.49329 11.2233 2.55871 11.1255 2.62693C11.0432 2.73343 10.9572 2.85394 10.8675 2.98286C10.9796 3.05666 11.0928 3.13139 11.2068 3.20987C11.1124 3.40044 11.0152 3.61157 10.9105 3.83764L10.3982 3.98524C10.3071 3.76575 10.2117 3.54804 10.1122 3.33224C9.91865 3.40791 9.72047 3.48545 9.52136 3.56766L9.24747 3.44902C9.26803 3.25004 9.29047 3.066 9.3129 2.90252C9.4793 2.82592 9.64195 2.75585 9.80087 2.68952C9.93735 2.51483 10.0682 2.37097 10.1897 2.2598C10.4982 2.19721 10.7946 2.14583 11.0769 2.10379C11.7939 2.13649 12.5426 2.1888 13.3007 2.25233C14.3515 2.21683 15.6256 2.17105 16.1874 2.14396C14.4274 0.754301 12.2496 -0.00111132 10.0065 1.22713e-06C7.62466 1.22713e-06 5.44004 0.835164 3.72188 2.22337L4.06682 2.27381C4.13506 2.44477 4.21265 2.62974 4.30426 2.83713C4.33417 2.94269 4.36689 3.05573 4.40241 3.1725C4.21608 3.35051 4.03798 3.53692 3.86864 3.73114C3.83155 3.83054 3.79603 3.93051 3.76207 4.03102C3.62933 4.10575 3.50033 4.18235 3.37133 4.25896C3.2872 4.53828 3.20961 4.83348 3.13763 5.1399C2.98282 5.118 2.82795 5.09652 2.67303 5.07544C2.58106 4.53586 2.50935 3.99303 2.45803 3.44808C1.99344 3.9815 1.57932 4.5607 1.23438 5.18567C1.28579 5.1427 1.33347 5.10066 1.38582 5.05862C1.51949 5.73404 1.68028 6.47485 1.89902 7.28105C1.45967 7.56411 1.06518 7.8453 0.724915 8.11621C0.496845 8.32654 0.281463 8.5502 0.0799043 8.78603C0.0322296 9.18399 -0.000488281 9.58849 -0.000488281 9.99953C-0.000488281 10.8524 0.118231 11.6764 0.318278 12.4677C0.495889 12.5321 0.689393 12.5956 0.904396 12.6582C1.23158 13.0319 1.60456 13.4112 2.01494 13.7858C2.10468 14.0539 2.20003 14.3173 2.30005 14.5761C2.83288 14.9077 3.41526 15.2291 4.02195 15.5309C3.86154 16.0221 3.71812 16.5188 3.59194 17.0199L2.90019 17.0368C3.82883 17.9773 4.93549 18.7238 6.1557 19.2327C7.37591 19.7416 8.68526 20.0028 10.0075 20.0009C15.4405 20.0009 19.8527 15.67 19.9995 10.2751C19.9631 10.1341 19.9341 9.99673 19.8948 9.8538Z" fill="#E5E5E5"/>
</g>
<defs>
<clipPath id="clip0_6535_6436">
<rect width="20" height="20" fill="white" transform="translate(-0.000488281)"/>
</clipPath>
</defs>
</svg>
