<svg width="725" height="875" viewBox="0 0 725 875" fill="none" xmlns="http://www.w3.org/2000/svg">
<path d="M523.628 116.308L523.628 449.806C523.628 468.266 512.416 483.225 498.579 483.225L213.632 483.225C199.795 483.225 188.582 468.266 188.582 449.806L188.582 185.086C188.582 166.625 199.795 151.667 213.632 151.667L622.619 151.667C636.456 151.667 647.669 166.625 647.669 185.086L647.669 553.63C647.669 572.09 636.456 587.049 622.619 587.049L531.884 587.049C518.047 587.049 506.834 572.09 506.834 553.63L506.834 347.051C506.834 328.591 495.622 313.632 481.785 313.632L392.959 313.632C379.122 313.632 367.909 328.591 367.909 347.051L367.909 792.116C367.909 810.576 356.697 825.534 342.86 825.534L111.24 825.534C97.4031 825.534 86.1906 810.576 86.1906 792.116L86.1906 588.265C86.1906 569.805 97.4032 554.846 111.24 554.846L676.181 554.847C690.018 554.847 701.23 539.888 701.23 521.428L701.23 286.723C701.23 268.263 690.018 253.304 676.181 253.304L26.0494 253.304C12.2123 253.304 0.999815 268.263 0.999814 286.723L0.999811 368.109C0.999811 386.569 12.2123 401.527 26.0494 401.527L699.419 401.527C713.256 401.527 724.469 386.569 724.469 368.109L724.469 112.642C724.469 94.1823 713.256 79.2235 699.419 79.2235L349.784 79.2235C335.947 79.2235 324.735 94.1823 324.735 112.642L324.735 840.378C324.735 858.838 335.947 873.797 349.784 873.797L449.909 873.797C463.746 873.797 474.958 858.838 474.958 840.378L474.958 0.79686" stroke="url(#paint0_linear_3_2)" stroke-opacity="0.4" stroke-miterlimit="10" stroke-linecap="round" stroke-dasharray="8 8"/>
<defs>
<linearGradient id="paint0_linear_3_2" x1="362.735" y1="0.796757" x2="580.67" y2="807.53" gradientUnits="userSpaceOnUse">
<stop stop-color="#FE3B76"/>
<stop offset="0.5" stop-color="#AF29CE"/>
<stop offset="1" stop-color="#2931DD"/>
</linearGradient>
</defs>
</svg>
