<svg width="675" height="813" viewBox="0 0 675 813" fill="none" xmlns="http://www.w3.org/2000/svg">
<path d="M187.542 704.489L187.542 394.676C187.542 377.527 197.975 363.63 210.85 363.63L475.993 363.63C488.868 363.63 499.301 377.527 499.301 394.676L499.302 640.596C499.302 657.745 488.868 671.642 475.993 671.642L95.4309 671.642C82.5556 671.642 72.1223 657.745 72.1223 640.596L72.1223 298.226C72.1223 281.077 82.5555 267.18 95.4309 267.18L179.86 267.18C192.735 267.18 203.169 281.077 203.169 298.226L203.169 490.133C203.169 507.282 213.602 521.179 226.477 521.179L309.129 521.179C322.005 521.179 332.438 507.282 332.438 490.133L332.438 76.6773C332.438 59.5282 342.871 45.6318 355.747 45.6318L571.268 45.6318C584.143 45.6318 594.577 59.5282 594.577 76.6772L594.577 266.05C594.577 283.199 584.143 297.096 571.268 297.096L45.592 297.096C32.7166 297.096 22.2834 310.992 22.2834 328.141L22.2834 546.177C22.2834 563.326 32.7167 577.223 45.592 577.223L650.538 577.223C663.413 577.223 673.847 563.326 673.847 546.177L673.847 470.571C673.847 453.422 663.413 439.526 650.538 439.526L23.9688 439.526C11.0934 439.526 0.660144 453.422 0.660145 470.572L0.660153 707.895C0.660153 725.044 11.0934 738.94 23.9688 738.94L349.303 738.94C362.179 738.94 372.612 725.044 372.612 707.895L372.612 31.8423C372.612 14.6932 362.179 0.796889 349.303 0.79689L256.138 0.796896C243.262 0.796896 232.829 14.6932 232.829 31.8423L232.829 811.797" stroke="url(#paint0_linear_3_4)" stroke-opacity="0.4" stroke-miterlimit="10" stroke-linecap="round" stroke-dasharray="8 8"/>
<defs>
<linearGradient id="paint0_linear_3_4" x1="337.253" y1="811.797" x2="135.08" y2="62.1912" gradientUnits="userSpaceOnUse">
<stop stop-color="#FE3B76"/>
<stop offset="0.5" stop-color="#AF29CE"/>
<stop offset="1" stop-color="#2931DD"/>
</linearGradient>
</defs>
</svg>
