<svg width="341" height="813" viewBox="0 0 341 813" fill="none" xmlns="http://www.w3.org/2000/svg">
<path d="M94.9781 704.489L94.9781 394.676C94.9781 377.527 100.23 363.63 106.711 363.63L240.172 363.63C246.652 363.63 251.904 377.527 251.904 394.676L251.904 640.596C251.904 657.745 246.652 671.642 240.172 671.642L48.6136 671.642C42.1327 671.642 36.881 657.745 36.881 640.596L36.881 298.226C36.881 281.077 42.1327 267.18 48.6135 267.18L91.1115 267.18C97.5923 267.18 102.844 281.077 102.844 298.226L102.844 490.133C102.844 507.282 108.096 521.179 114.577 521.179L156.18 521.179C162.661 521.179 167.912 507.282 167.912 490.133L167.912 76.6773C167.912 59.5282 173.164 45.6318 179.645 45.6318L288.129 45.6318C294.61 45.6318 299.861 59.5282 299.861 76.6772L299.861 266.05C299.861 283.199 294.61 297.096 288.129 297.096L23.5268 297.096C17.046 297.096 11.7943 310.992 11.7943 328.141L11.7943 546.177C11.7943 563.326 17.046 577.223 23.5269 577.223L328.03 577.223C334.511 577.223 339.762 563.326 339.762 546.177L339.762 470.571C339.762 453.422 334.511 439.526 328.03 439.526L12.6427 439.526C6.1618 439.526 0.91015 453.422 0.910151 470.572L0.910155 707.895C0.910155 725.044 6.1618 738.94 12.6427 738.94L176.402 738.94C182.883 738.94 188.134 725.044 188.134 707.895L188.134 31.8423C188.134 14.6932 182.883 0.796889 176.402 0.79689L129.506 0.796896C123.025 0.796896 117.774 14.6932 117.774 31.8423L117.774 811.797" stroke="url(#paint0_linear_2_2)" stroke-opacity="0.4" stroke-miterlimit="10" stroke-linecap="round" stroke-dasharray="8 8"/>
<defs>
<linearGradient id="paint0_linear_2_2" x1="170.336" y1="811.797" x2="-164.422" y2="187.032" gradientUnits="userSpaceOnUse">
<stop stop-color="#FE3B76"/>
<stop offset="0.5" stop-color="#AF29CE"/>
<stop offset="1" stop-color="#2931DD"/>
</linearGradient>
</defs>
</svg>
