<svg width="366" height="875" viewBox="0 0 366 875" fill="none" xmlns="http://www.w3.org/2000/svg">
<path d="M264.17 116.308L264.17 449.806C264.17 468.266 258.526 483.225 251.561 483.225L108.131 483.225C101.166 483.225 95.5221 468.266 95.5221 449.806L95.5222 185.086C95.5222 166.625 101.166 151.667 108.131 151.667L313.997 151.667C320.962 151.667 326.606 166.625 326.606 185.086L326.606 553.63C326.606 572.09 320.962 587.049 313.997 587.049L268.325 587.049C261.36 587.049 255.716 572.09 255.716 553.63L255.716 347.051C255.716 328.591 250.072 313.632 243.107 313.632L198.396 313.632C191.431 313.632 185.787 328.591 185.787 347.051L185.787 792.116C185.787 810.576 180.144 825.534 173.179 825.534L56.5916 825.534C49.6266 825.534 43.9827 810.576 43.9827 792.116L43.9827 588.265C43.9827 569.805 49.6266 554.846 56.5916 554.846L340.958 554.846C347.923 554.846 353.567 539.888 353.567 521.428L353.567 286.723C353.567 268.263 347.923 253.304 340.958 253.304L13.7103 253.304C6.74534 253.304 1.10147 268.263 1.10147 286.723L1.10146 368.109C1.10146 386.569 6.74534 401.527 13.7103 401.527L352.655 401.527C359.62 401.527 365.264 386.569 365.264 368.109L365.264 112.642C365.264 94.1823 359.62 79.2235 352.655 79.2235L176.664 79.2235C169.699 79.2235 164.055 94.1823 164.055 112.642L164.055 840.378C164.055 858.838 169.699 873.797 176.664 873.797L227.062 873.797C234.027 873.797 239.671 858.838 239.671 840.378L239.671 0.79686" stroke="url(#paint0_linear_2_4)" stroke-opacity="0.4" stroke-miterlimit="10" stroke-linecap="round" stroke-dasharray="8 8"/>
<defs>
<linearGradient id="paint0_linear_2_4" x1="183.183" y1="0.796757" x2="543.858" y2="672.834" gradientUnits="userSpaceOnUse">
<stop stop-color="#FE3B76"/>
<stop offset="0.5" stop-color="#AF29CE"/>
<stop offset="1" stop-color="#2931DD"/>
</linearGradient>
</defs>
</svg>
